<svg xmlns="http://www.w3.org/2000/svg" style="display: none;">
    <symbol id="icon-antenna-off" viewBox="0 0 24 24">
        <path d="M12 5C12.5523 5 13 4.55228 13 4C13 3.44772 12.5523 3 12 3C11.4477 3 11 3.44772 11 4C11 4.55228 11.4477 5 12 5Z" fill="currentColor" stroke="currentColor" stroke-width="1.2" stroke-linecap="round" stroke-linejoin="round"></path>
        <path d="M7 23L8.11111 19M17 23L15.8889 19M9.5 14L8.11111 19M9.5 14H13.5M9.5 14L10.2998 11.1208M8.11111 19H15.8889M15.8889 19L14.7045 14.7361M11.4444 7L12 5L13.0466 8.76759" stroke="currentColor" stroke-width="1.2" stroke-linecap="round" stroke-linejoin="round"></path>
        <path d="M3 3L21 21" stroke="currentColor" stroke-width="1.2" stroke-linecap="round" stroke-linejoin="round"></path>
    </symbol>

    <symbol id="icon-antenna-on" viewBox="0 0 24 24">
        <path d="M12 5C12.5523 5 13 4.55228 13 4C13 3.44772 12.5523 3 12 3C11.4477 3 11 3.44772 11 4C11 4.55228 11.4477 5 12 5Z" fill="currentColor" stroke="currentColor" stroke-width="1.2" stroke-linecap="round" stroke-linejoin="round"></path>
        <path d="M16 1C16 1 17.5 2 17.5 4C17.5 6 16 7 16 7" stroke="currentColor" stroke-width="1.2" stroke-linecap="round" stroke-linejoin="round"></path>
        <path d="M8 1C8 1 6.5 2 6.5 4C6.5 6 8 7 8 7" stroke="currentColor" stroke-width="1.2" stroke-linecap="round" stroke-linejoin="round"></path>
        <path d="M7 23L8.11111 19M17 23L15.8889 19M14.5 14L12 5L9.5 14M14.5 14H9.5M14.5 14L15.8889 19M9.5 14L8.11111 19M8.11111 19H15.8889" stroke="currentColor" stroke-width="1.2" stroke-linecap="round" stroke-linejoin="round"></path>
    </symbol>

    <symbol id="icon-bold" viewBox="0 0 24 24">
        <path d="M12 11.6667H8M12 11.6667C12 11.6667 15.3333 11.6667 15.3333 8.33333C15.3333 5.00002 12 5 12 5C12 5 12 5 12 5H8.6C8.26863 5 8 5.26863 8 5.6V11.6667M12 11.6667C12 11.6667 16 11.6667 16 15.3333C16 19 12 19 12 19C12 19 12 19 12 19H8.6C8.26863 19 8 18.7314 8 18.4V11.6667" stroke="currentColor" stroke-width="1.2" fill="none" stroke-linecap="round" stroke-linejoin="round"></path>
    </symbol>

    <symbol id="icon-double-check" viewBox="0 0 24 24">
        <path d="M1.5 12.5L5.57574 16.5757C5.81005 16.8101 6.18995 16.8101 6.42426 16.5757L9 14" stroke="currentColor" stroke-width="1.2" stroke-linecap="round"></path>
        <path d="M16 7L12 11" stroke="currentColor" stroke-width="1.2" stroke-linecap="round"></path>
        <path d="M7 12L11.5757 16.5757C11.8101 16.8101 12.1899 16.8101 12.4243 16.5757L22 7" stroke="currentColor" stroke-width="1.2" stroke-linecap="round"></path>
    </symbol>

    <symbol id="icon-download" viewBox="0 0 24 24">
        <path d="M6 20L18 20" stroke="currentColor" stroke-width="1.2" stroke-linecap="round" stroke-linejoin="round"></path>
        <path d="M12 4V16M12 16L15.5 12.5M12 16L8.5 12.5" stroke="currentColor" stroke-width="1.2" stroke-linecap="round" stroke-linejoin="round"></path>
    </symbol>

    <symbol id="icon-emoji" viewBox="0 0 24 24">
        <path d="M12 22C6.47715 22 2 17.5228 2 12C2 6.47715 6.47715 2 12 2C17.5228 2 22 6.47715 22 12C22 17.5228 17.5228 22 12 22Z" stroke="currentColor" stroke-width="1.2" stroke-linecap="round" stroke-linejoin="round"></path>
        <path d="M16.5 14.5C16.5 14.5 15 16.5 12 16.5C9 16.5 7.5 14.5 7.5 14.5" stroke="currentColor" stroke-width="1.2" stroke-linecap="round" stroke-linejoin="round"></path>
        <path d="M15.5 9C15.2239 9 15 8.77614 15 8.5C15 8.22386 15.2239 8 15.5 8C15.7761 8 16 8.22386 16 8.5C16 8.77614 15.7761 9 15.5 9Z" fill="currentColor" stroke="currentColor" stroke-width="1.2" stroke-linecap="round" stroke-linejoin="round"></path>
        <path d="M8.5 9C8.22386 9 8 8.77614 8 8.5C8 8.22386 8.22386 8 8.5 8C8.77614 8 9 8.22386 9 8.5C9 8.77614 8.77614 9 8.5 9Z" fill="currentColor" stroke="currentColor" stroke-width="1.2" stroke-linecap="round" stroke-linejoin="round"></path>
    </symbol>

    <symbol id="icon-github" viewBox="0 0 24 24">
        <g clip-path="url(#clip0_4265_8324)">
            <path d="M12 10C12.8284 10 13.5 9.32843 13.5 8.5C13.5 7.67157 12.8284 7 12 7C11.1716 7 10.5 7.67157 10.5 8.5C10.5 9.32843 11.1716 10 12 10Z" stroke="currentColor" stroke-width="1.2" stroke-linecap="round" stroke-linejoin="round"></path>
            <path d="M12 18C12.8284 18 13.5 17.3284 13.5 16.5C13.5 15.6716 12.8284 15 12 15C11.1716 15 10.5 15.6716 10.5 16.5C10.5 17.3284 11.1716 18 12 18Z" stroke="currentColor" stroke-width="1.2" stroke-linecap="round" stroke-linejoin="round"></path>
            <path d="M16.25 14.25C17.0784 14.25 17.75 13.5784 17.75 12.75C17.75 11.9216 17.0784 11.25 16.25 11.25C15.4216 11.25 14.75 11.9216 14.75 12.75C14.75 13.5784 15.4216 14.25 16.25 14.25Z" stroke="currentColor" stroke-width="1.2" stroke-linecap="round" stroke-linejoin="round"></path>
            <path d="M12 10V15" stroke="currentColor" stroke-width="1.2" stroke-linecap="round" stroke-linejoin="round"></path>
            <path d="M8.25 4.75L10.5 7" stroke="currentColor" stroke-width="1.2" stroke-linecap="round" stroke-linejoin="round"></path>
            <path d="M13.25 9.75L14.75 11.25" stroke="currentColor" stroke-width="1.2" stroke-linecap="round" stroke-linejoin="round"></path>
            <path d="M11.5757 1.42426C11.81 1.18995 12.1899 1.18995 12.4243 1.42426L22.5757 11.5757C22.81 11.81 22.8101 12.1899 22.5757 12.4243L12.4243 22.5757C12.19 22.81 11.8101 22.8101 11.5757 22.5757L1.42426 12.4243C1.18995 12.19 1.18995 11.8101 1.42426 11.5757L11.5757 1.42426Z" stroke="currentColor" stroke-width="1.2" stroke-linecap="round" stroke-linejoin="round"></path>
        </g>
        <defs>
            <clipPath id="clip0_4265_8324">
                <rect width="24" height="24" fill="white"></rect>
            </clipPath>
        </defs>
    </symbol>

    <symbol id="icon-info" viewBox="0 0 24 24">
        <path d="M12 11.5V16.5" stroke="currentColor" stroke-width="1.2" stroke-linecap="round" stroke-linejoin="round"></path>
        <path d="M12 7.51L12.01 7.49889" stroke="currentColor" stroke-width="1.2" stroke-linecap="round" stroke-linejoin="round"></path>
        <path d="M12 22C17.5228 22 22 17.5228 22 12C22 6.47715 17.5228 2 12 2C6.47715 2 2 6.47715 2 12C2 17.5228 6.47715 22 12 22Z" stroke="currentColor" stroke-width="1.2" stroke-linecap="round" stroke-linejoin="round"></path>
    </symbol>

    <symbol id="icon-light-bulb-on" viewBox="0 0 24 24">
        <path d="M21 2L20 3" stroke="currentColor" stroke-width="1.2" stroke-linecap="round" stroke-linejoin="round"></path>
        <path d="M3 2L4 3" stroke="currentColor" stroke-width="1.2" stroke-linecap="round" stroke-linejoin="round"></path>
        <path d="M21 16L20 15" stroke="currentColor" stroke-width="1.2" stroke-linecap="round" stroke-linejoin="round"></path>
        <path d="M3 16L4 15" stroke="currentColor" stroke-width="1.2" stroke-linecap="round" stroke-linejoin="round"></path>
        <path d="M9 18H15" stroke="currentColor" stroke-width="1.2" stroke-linecap="round" stroke-linejoin="round"></path>
        <path d="M10 21H14" stroke="currentColor" stroke-width="1.2" stroke-linecap="round" stroke-linejoin="round"></path>
        <path d="M11.9998 3C7.9997 3 5.95186 4.95029 5.99985 8C6.02324 9.48689 6.4997 10.5 7.49985 11.5C8.5 12.5 9 13 8.99985 15H14.9998C15 13.0001 15.5 12.5 16.4997 11.5001L16.4998 11.5C17.4997 10.5 17.9765 9.48689 17.9998 8C18.0478 4.95029 16 3 11.9998 3Z" stroke="currentColor" stroke-width="1.2" stroke-linecap="round" stroke-linejoin="round"></path>
    </symbol>

    <symbol id="icon-light-bulb-off" viewBox="0 0 24 24">
        <path d="M9 18H15" stroke="currentColor" stroke-width="1.2" stroke-linecap="round" stroke-linejoin="round"></path>
        <path d="M10 21H14" stroke="currentColor" stroke-width="1.2" stroke-linecap="round" stroke-linejoin="round"></path>
        <path d="M9.00082 15C9.00098 13 8.50098 12.5 7.50082 11.5C6.50067 10.5 6.02422 9.48689 6.00082 8C5.95284 4.95029 8.00067 3 12.0008 3C16.001 3 18.0488 4.95029 18.0008 8C17.9774 9.48689 17.5007 10.5 16.5008 11.5C15.501 12.5 15.001 13 15.001 15" stroke="currentColor" stroke-width="1.2" stroke-linecap="round" stroke-linejoin="round"></path>
    </symbol>

    <symbol id="icon-link" viewBox="0 0 24 24">
        <path d="M14 11.9976C14 9.5059 11.683 7 8.85714 7C8.52241 7 7.41904 7.00001 7.14286 7.00001C4.30254 7.00001 2 9.23752 2 11.9976C2 14.376 3.70973 16.3664 6 16.8714C6.36756 16.9525 6.75006 16.9952 7.14286 16.9952" stroke="currentColor" stroke-width="1.2" stroke-linecap="round" stroke-linejoin="round"></path>
        <path d="M10 11.9976C10 14.4893 12.317 16.9952 15.1429 16.9952C15.4776 16.9952 16.581 16.9952 16.8571 16.9952C19.6975 16.9952 22 14.7577 22 11.9976C22 9.6192 20.2903 7.62884 18 7.12383C17.6324 7.04278 17.2499 6.99999 16.8571 6.99999" stroke="currentColor" stroke-width="1.2" stroke-linecap="round" stroke-linejoin="round"></path>
    </symbol>

    <symbol id="icon-checkbox" viewBox="0 0 24 24">
        <path d="M9 6L20 6" stroke="currentColor" stroke-width="1.2" stroke-linecap="round" stroke-linejoin="round"></path>
        <path d="M5 6.01L5.01 5.99889" stroke="currentColor" stroke-width="1.2" stroke-linecap="round" stroke-linejoin="round"></path>
        <path d="M5 12.01L5.01 11.9989" stroke="currentColor" stroke-width="1.2" stroke-linecap="round" stroke-linejoin="round"></path>
        <path d="M3.80005 17.8L4.60005 18.6L6.60004 16.6" stroke="currentColor" stroke-width="1.2" stroke-linecap="round" stroke-linejoin="round"></path>
        <path d="M9 12L20 12" stroke="currentColor" stroke-width="1.2" stroke-linecap="round" stroke-linejoin="round"></path>
        <path d="M9 18L20 18" stroke="currentColor" stroke-width="1.2" stroke-linecap="round" stroke-linejoin="round"></path>
    </symbol>

    <symbol id="icon-unordered-list" viewBox="0 0 24 24">
        <path d="M8 6L20 6" stroke="currentColor" stroke-width="1.2" stroke-linecap="round" stroke-linejoin="round"></path>
        <path d="M4 6.01L4.01 5.99889" stroke="currentColor" stroke-width="1.2" stroke-linecap="round" stroke-linejoin="round"></path>
        <path d="M4 12.01L4.01 11.9989" stroke="currentColor" stroke-width="1.2" stroke-linecap="round" stroke-linejoin="round"></path>
        <path d="M4 18.01L4.01 17.9989" stroke="currentColor" stroke-width="1.2" stroke-linecap="round" stroke-linejoin="round"></path>
        <path d="M8 12L20 12" stroke="currentColor" stroke-width="1.2" stroke-linecap="round" stroke-linejoin="round"></path>
        <path d="M8 18L20 18" stroke="currentColor" stroke-width="1.2" stroke-linecap="round" stroke-linejoin="round"></path>
    </symbol>

    <symbol id="icon-arrow-left" viewBox="0 0 24 24">
        <path d="M15 6L9 12L15 18" stroke="currentColor" stroke-width="1.2" stroke-linecap="round" stroke-linejoin="round"></path>
    </symbol>

    <symbol id="icon-arrow-right" viewBox="0 0 24 24">
        <path d="M9 6L15 12L9 18" stroke="currentColor" stroke-width="1.2" stroke-linecap="round" stroke-linejoin="round"></path>
    </symbol>

    <symbol id="icon-redo" viewBox="0 0 24 24">
        <path d="M19.5 8C15.5 8 13 8 9 8C9 8 9 8 9 8C9 8 4 8 4 12.7059C4 18 9 18 9 18C12.4286 18 14.2857 18 17.7143 18" stroke="currentColor" stroke-width="1.2" stroke-linecap="round" stroke-linejoin="round"></path>
        <path d="M16.5 11.5C17.8668 10.1332 18.6332 9.36683 20 8C18.6332 6.63317 17.8668 5.86683 16.5 4.5" stroke="currentColor" stroke-width="1.2" stroke-linecap="round" stroke-linejoin="round"></path>
    </symbol>

    <symbol id="icon-undo" viewBox="0 0 24 24">
        <path d="M4.5 8C8.5 8 11 8 15 8C15 8 15 8 15 8C15 8 20 8 20 12.7059C20 18 15 18 15 18C11.5714 18 9.71429 18 6.28571 18" stroke="currentColor" stroke-width="1.2" stroke-linecap="round" stroke-linejoin="round"></path>
        <path d="M7.5 11.5C6.13317 10.1332 5.36683 9.36683 4 8C5.36683 6.63317 6.13317 5.86683 7.5 4.5" stroke="currentColor" stroke-width="1.2" stroke-linecap="round" stroke-linejoin="round"></path>
    </symbol>

    <symbol id="icon-upload" viewBox="0 0 24 24">
        <path d="M6 20L18 20" stroke="currentColor" stroke-width="1.2" stroke-linecap="round" stroke-linejoin="round"></path>
        <path d="M12 16V4M12 4L15.5 7.5M12 4L8.5 7.5" stroke="currentColor" stroke-width="1.2" stroke-linecap="round" stroke-linejoin="round"></path>
    </symbol>

    <symbol id="icon-title" viewBox="0 0 24 24">
        <path d="M19 7V5L5 5V7" stroke="currentColor" stroke-width="1.2" stroke-linecap="round" stroke-linejoin="round"></path>
        <path d="M12 5L12 19M12 19H10M12 19H14" stroke="currentColor" stroke-width="1.2" stroke-linecap="round" stroke-linejoin="round"></path>
    </symbol>

    <!-- Missing ones, updated from old -->
    <symbol id="icon-ordered-list" viewBox="0 0 24 24">
        <path d="M11 6H20" stroke="currentColor" stroke-width="1.2" fill="none" stroke-linecap="round" stroke-linejoin="round"></path>
        <path d="M11 12H20" stroke="currentColor" stroke-width="1.2" fill="none" stroke-linecap="round" stroke-linejoin="round"></path>
        <path d="M11 18H20" stroke="currentColor" stroke-width="1.2" fill="none" stroke-linecap="round" stroke-linejoin="round"></path>
        <path d="M3 5V7H5" stroke="currentColor" stroke-width="1.2" fill="none" stroke-linecap="round" stroke-linejoin="round"></path>
        <path d="M3 11V13H5V11H3Z" stroke="currentColor" stroke-width="1.2" fill="none" stroke-linecap="round" stroke-linejoin="round"></path>
        <path d="M3 17V19H5V18C5 17.4477 4.55228 17 4 17H3Z" stroke="currentColor" stroke-width="1.2" fill="none" stroke-linecap="round" stroke-linejoin="round"></path>
    </symbol>

    <symbol id="icon-maximize" viewBox="0 0 24 24">
        <path d="M3 21L21 3" stroke="currentColor" fill="none" stroke-width="1.2" stroke-linecap="round" stroke-linejoin="round"></path>
        <path d="M7 21H3V17" stroke="currentColor" fill="none" stroke-width="1.2" stroke-linecap="round" stroke-linejoin="round"></path>
        <path d="M21 7V3H17" stroke="currentColor" fill="none" stroke-width="1.2" stroke-linecap="round" stroke-linejoin="round"></path>
    </symbol>

    <symbol id="icon-minimize" viewBox="0 0 24 24">
        <path d="M10 14L21 3" stroke="currentColor" fill="none" stroke-width="1.2" stroke-linecap="round" stroke-linejoin="round"></path>
        <path d="M21 3H17" stroke="currentColor" fill="none" stroke-width="1.2" stroke-linecap="round" stroke-linejoin="round"></path>
        <path d="M21 3V7" stroke="currentColor" fill="none" stroke-width="1.2" stroke-linecap="round" stroke-linejoin="round"></path>
    </symbol>
</svg>